<svg viewBox="0 -48 512.001 512" xmlns="http://www.w3.org/2000/svg"><path d="m150.75 36.378906c5.308594-6.363281 4.453125-15.820312-1.90625-21.128906-6.363281-5.308594-15.820312-4.453125-21.128906 1.910156l-124.234375 148.898438c-2.25 2.695312-3.480469 6.097656-3.480469 9.609375 0 39.277343 31.953125 71.234375 71.234375 71.234375 39.277344 0 71.230469-31.957032 71.230469-71.234375 0-7.882813-6.085938-14.335938-13.816406-14.9375l8.539062-108.097657zm0 0" fill="#ca6d36"/><path d="m508.519531 166.058594-124.230469-148.898438c-5.308593-6.363281-14.769531-7.21875-21.128906-1.910156s-7.214844 14.765625-1.90625 21.128906l13.558594 16.253906 8.542969 108.097657c-7.734375.601562-13.820313 7.054687-13.820313 14.9375 0 39.277343 31.953125 71.234375 71.230469 71.234375 39.28125 0 71.234375-31.957032 71.234375-71.234375 0-3.511719-1.230469-6.914063-3.480469-9.609375zm0 0" fill="#b24d00"/><path d="m318.25 212.863281h-124.5c-8.285156 0-15 6.71875-15 15v124.5c0 1.261719.15625 2.511719.46875 3.730469 9 35.039062 40.570312 59.507812 76.78125 59.507812s67.785156-24.46875 76.777344-59.503906c.3125-1.21875.472656-2.476562.472656-3.734375v-124.5c0-8.28125-6.714844-15-15-15zm0 0" fill="#ff9100"/><path d="m318.25 212.863281h-62.25v202.738281c36.210938 0 67.785156-24.46875 76.777344-59.503906.3125-1.21875.472656-2.476562.472656-3.734375v-124.5c0-8.28125-6.714844-15-15-15zm0 0" fill="#d26a00"/><path d="m344.367188 0h-176.734376c-30.417968 0-55.164062 24.75-55.167968 55.171875v232.964844c0 43.707031 35.558594 79.265625 79.269531 79.265625 26.414063 0 49.855469-12.988282 64.265625-32.914063 14.410156 19.925781 37.851562 32.914063 64.265625 32.914063 43.707031 0 79.269531-35.558594 79.269531-79.265625v-233.007813c-.023437-30.398437-24.769531-55.128906-55.167968-55.128906zm0 0" fill="#fcdb2c"/><path d="m344.367188 0h-88.367188v334.488281c14.410156 19.925781 37.851562 32.914063 64.265625 32.914063 43.707031 0 79.269531-35.5625 79.269531-79.269532v-233.003906c-.023437-30.398437-24.769531-55.128906-55.167968-55.128906zm0 0" fill="#ff9f04"/><path d="m191.726562 158.535156c-3.941406 0-7.808593-1.601562-10.597656-4.390625-2.789062-2.792969-4.390625-6.660156-4.390625-10.609375 0-3.949218 1.597657-7.8125 4.390625-10.609375 2.789063-2.792969 6.65625-4.390625 10.597656-4.390625 3.949219 0 7.820313 1.597656 10.609376 4.390625 2.789062 2.796875 4.390624 6.660157 4.390624 10.609375 0 3.949219-1.597656 7.816406-4.390624 10.609375-2.789063 2.789063-6.65625 4.390625-10.609376 4.390625zm0 0" fill="#913f02"/><path d="m320.269531 158.535156c-3.953125 0-7.8125-1.601562-10.613281-4.390625-2.789062-2.792969-4.386719-6.660156-4.386719-10.609375 0-3.949218 1.597657-7.8125 4.386719-10.609375 2.792969-2.792969 6.660156-4.390625 10.613281-4.390625 3.949219 0 7.808594 1.597656 10.609375 4.390625 2.789063 2.796875 4.390625 6.660157 4.390625 10.609375 0 3.949219-1.601562 7.816406-4.390625 10.609375-2.800781 2.789063-6.660156 4.390625-10.609375 4.390625zm0 0" fill="#552003"/><path d="m301.71875 223.941406c-5.53125-9.578125-16.339844-15.074218-29.648438-15.074218h-32.140624c-13.3125 0-24.117188 5.496093-29.648438 15.078124-5.535156 9.582032-4.890625 21.6875 1.765625 33.21875l16.070313 27.832032c6.65625 11.527344 16.820312 18.140625 27.882812 18.140625s21.226562-6.609375 27.882812-18.140625l16.070313-27.835938c6.65625-11.53125 7.296875-23.636718 1.765625-33.21875zm0 0" fill="#ff5b5b"/><path d="m301.71875 223.941406c-5.53125-9.578125-16.339844-15.074218-29.648438-15.074218h-16.070312v94.269531c11.0625 0 21.226562-6.609375 27.882812-18.140625l16.070313-27.835938c6.65625-11.53125 7.296875-23.636718 1.765625-33.21875zm0 0" fill="#ff3980"/></svg>